<?xml version="1.0" standalone="no"?>
<!DOCTYPE svg PUBLIC "-//W3C//DTD SVG 20010904//EN" "http://www.w3.org/TR/2001/REC-SVG-20010904/DTD/svg10.dtd">
<svg version="1.0" xmlns="http://www.w3.org/2000/svg" width="1380.000000pt" height="1380.000000pt" viewBox="0 0 1380.000000 1380.000000" preserveAspectRatio="xMidYMid meet">

<defs>
  <!-- Radial gradient from light purple-blue to dark purple-blue -->
  <radialGradient id="mainGradient" cx="50%" cy="30%" r="80%">
    <stop offset="0%" style="stop-color:#5B6CE8;stop-opacity:1" />
    <stop offset="100%" style="stop-color:#3734A5;stop-opacity:1" />
  </radialGradient>
</defs>

<g transform="translate(0.000000,1380.000000) scale(0.100000,-0.100000)" fill="url(#mainGradient)" stroke="none">
<path d="M7040 13394 c-8 -3 -29 -12 -47 -20 -17 -8 -36 -14 -42 -14 -6 0 -39 -28 -74 -63 -50 -51 -67 -76 -86 -131 -20 -59 -23 -78 -16 -148 3 -45 11 -88 16 -97 5 -9 13 -27 19 -41 27 -68 107 -146 170 -165 14 -4 31 -13 39 -19 21 -17 197 -10 240 9 98 44 153 94 198 184 25 50 28 64 27 155 -1 79 -6 111 -22 148 -20 46 -127 168 -147 168 -5 0 -23 7 -40 16 -30 17 -204 30 -235 18z"/>
<path d="M8634 12631 c-12 -5 -63 -12 -115 -16 -52 -4 -98 -10 -104 -14 -10 -6 -87 -23 -190 -41 -33 -6 -67 -15 -76 -20 -9 -5 -34 -12 -55 -15 -22 -4 -49 -13 -61 -21 -12 -8 -35 -14 -51 -14 -15 0 -32 -4 -38 -9 -17 -17 -174 -57 -279 -72 -38 -5 -77 -14 -86 -19 -24 -13 -311 -33 -484 -34 -187 -1 -617 23 -629 35 -6 5 -44 9 -85 10 -42 0 -110 4 -151 9 -99 12 -320 36 -445 49 -55 6 -124 15 -154 21 -30 5 -89 10 -131 10 -42 0 -128 7 -191 15 -166 23 -838 23 -924 1 -32 -9 -85 -16 -116 -16 -32 0 -70 -5 -86 -11 -15 -6 -48 -14 -73 -19 -43 -8 -109 -24 -210 -50 -25 -6 -53 -16 -63 -21 -9 -5 -39 -16 -65 -25 -91 -31 -348 -163 -401 -206 -16 -13 -38 -30 -51 -38 -55 -36 -126 -96 -198 -168 -97 -97 -192 -200 -192 -210 0 -4 -10 -18 -22 -32 -27 -29 -118 -165 -118 -175 0 -4 -13 -24 -29 -44 -15 -20 -31 -46 -35 -58 -4 -13 -12 -23 -17 -23 -5 0 -9 -7 -9 -16 0 -9 -12 -38 -27 -63 -40 -66 -75 -143 -123 -266 -17 -44 -37 -93 -45 -108 -8 -16 -15 -38 -15 -50 0 -12 -7 -31 -15 -41 -8 -11 -15 -26 -15 -34 0 -8 -6 -28 -13 -45 -21 -50 -38 -99 -48 -140 -5 -21 -13 -45 -18 -55 -5 -9 -17 -44 -27 -77 -9 -33 -23 -71 -29 -85 -7 -14 -22 -56 -34 -95 -13 -38 -29 -84 -37 -102 -8 -17 -14 -38 -14 -46 0 -9 -4 -19 -10 -22 -5 -3 -10 -14 -10 -23 0 -9 -7 -30 -15 -46 -8 -15 -15 -33 -15 -40 -1 -6 -9 -29 -20 -51 -11 -22 -19 -43 -20 -48 0 -4 -11 -30 -25 -59 -14 -28 -25 -60 -25 -69 0 -10 -4 -20 -9 -23 -8 -5 -40 -68 -101 -201 -13 -27 -41 -78 -62 -113 -21 -34 -38 -65 -38 -68 0 -2 -8 -17 -19 -32 -10 -15 -57 -85 -104 -157 -48 -71 -101 -147 -119 -168 -18 -20 -49 -56 -68 -79 -34 -42 -162 -183 -255 -283 -25 -27 -65 -72 -88 -98 -71 -81 -87 -100 -151 -167 -65 -69 -178 -208 -264 -325 -28 -38 -62 -84 -76 -101 -14 -17 -30 -42 -36 -55 -10 -25 -21 -44 -55 -94 -23 -34 -73 -135 -105 -210 -11 -27 -24 -57 -29 -65 -5 -9 -12 -31 -16 -50 -4 -19 -13 -44 -20 -55 -22 -36 -75 -294 -100 -485 -7 -58 -19 -139 -25 -180 -16 -98 -16 -650 -1 -745 6 -38 15 -110 21 -159 5 -49 14 -94 19 -100 6 -7 14 -36 20 -66 11 -65 29 -137 41 -165 5 -11 11 -31 13 -45 6 -27 31 -102 47 -135 5 -11 18 -42 30 -70 65 -153 74 -172 123 -253 20 -34 37 -65 37 -69 0 -16 159 -238 234 -328 137 -162 390 -399 531 -496 28 -19 52 -37 55 -40 12 -14 202 -139 320 -210 249 -151 395 -323 562 -664 22 -44 45 -93 52 -110 15 -35 72 -158 92 -198 8 -16 14 -34 14 -42 0 -7 7 -18 15 -25 8 -7 15 -19 15 -27 0 -32 188 -410 226 -454 8 -8 14 -20 14 -26 0 -5 13 -27 30 -49 16 -21 30 -43 30 -47 0 -7 37 -64 50 -77 3 -3 41 -50 85 -105 89 -110 188 -211 290 -295 37 -30 77 -63 89 -73 19 -17 210 -144 261 -174 11 -7 54 -28 95 -48 41 -20 87 -43 102 -51 14 -7 33 -14 41 -14 8 0 28 -7 43 -15 16 -8 37 -15 46 -15 9 0 19 -4 23 -9 3 -6 26 -13 52 -17 25 -4 58 -13 72 -20 14 -8 38 -14 53 -14 14 0 55 -7 89 -16 125 -32 689 -31 767 1 9 4 55 11 101 15 46 5 88 13 94 19 6 6 23 11 38 11 15 0 49 6 75 14 45 13 72 20 179 47 21 6 44 14 50 18 5 5 28 12 50 16 22 4 45 10 50 15 6 4 24 10 40 14 17 4 59 19 95 33 199 77 302 119 365 148 39 18 111 52 160 74 50 23 97 45 105 51 8 5 35 18 60 30 25 11 52 24 60 29 8 5 51 28 95 50 44 23 87 45 95 50 8 5 22 12 30 15 8 4 38 20 65 37 28 16 64 37 80 45 17 8 44 23 60 34 17 11 50 31 75 45 25 14 53 30 63 35 33 19 52 29 127 65 41 20 88 42 103 50 16 8 33 15 38 15 6 0 30 9 54 20 24 11 68 26 97 34 29 8 67 19 83 25 168 56 468 97 710 95 122 0 282 -10 575 -36 96 -8 496 -26 600 -27 8 0 98 4 199 8 170 9 223 15 371 43 30 6 78 14 105 17 28 4 66 12 85 18 19 6 89 26 155 43 66 17 131 36 145 42 14 6 41 14 60 18 47 11 213 70 225 81 5 5 17 9 28 9 10 0 35 9 55 20 20 11 84 42 142 70 58 27 128 63 155 80 28 16 61 35 75 40 13 6 27 14 30 18 3 4 41 32 85 62 44 30 91 64 104 75 115 96 125 106 280 270 33 36 81 100 162 220 15 22 55 96 89 165 34 69 68 137 76 152 8 14 14 34 14 43 0 9 7 29 15 43 18 34 75 218 75 244 0 11 5 29 12 41 7 12 15 45 20 72 4 28 14 84 23 125 9 41 21 125 28 185 7 61 16 116 21 124 5 8 13 91 17 185 5 94 13 218 18 276 6 58 11 186 11 285 1 99 5 259 10 355 5 96 12 240 15 320 3 80 10 186 15 235 5 50 12 137 15 195 4 58 13 130 21 160 8 30 14 77 14 105 0 27 5 66 10 85 6 19 15 62 20 95 21 127 37 201 48 222 7 12 12 36 12 53 0 17 5 40 11 51 5 11 19 53 29 93 11 40 26 86 35 102 8 16 15 38 15 49 0 11 7 29 15 39 8 11 15 28 15 37 0 17 46 173 72 244 6 17 13 48 15 70 3 22 9 45 14 51 6 7 14 36 19 65 5 30 17 83 26 119 8 36 20 103 25 150 5 47 15 94 22 105 19 33 23 563 4 623 -8 26 -18 69 -22 96 -4 27 -10 58 -15 70 -5 11 -18 54 -30 93 -12 40 -26 75 -31 78 -5 4 -9 13 -9 20 0 8 -29 63 -64 122 -70 119 -189 262 -280 338 -32 28 -66 57 -75 66 -38 37 -263 196 -377 266 -172 107 -263 162 -297 182 -23 13 -44 27 -47 31 -3 3 -44 30 -92 59 -48 30 -93 60 -99 67 -6 8 -15 14 -20 14 -8 0 -114 73 -149 102 -8 7 -39 31 -70 54 -156 115 -430 383 -474 462 -5 10 -22 33 -38 52 -16 19 -32 40 -36 45 -22 30 -68 100 -77 115 -5 11 -25 45 -44 77 -19 32 -45 78 -59 103 -13 25 -41 71 -63 104 -21 32 -39 60 -39 62 0 6 -70 105 -99 140 -14 18 -37 47 -51 65 -37 50 -230 238 -270 264 -19 12 -41 30 -49 39 -7 9 -41 33 -75 53 -33 20 -62 41 -64 45 -2 4 -8 8 -14 8 -11 0 -144 64 -161 78 -7 5 -28 13 -47 17 -19 4 -39 10 -45 14 -11 7 -79 28 -180 56 -33 9 -91 21 -130 26 -90 14 -553 21 -581 10z m-3861 -1696 c32 -8 71 -15 87 -15 16 0 49 -6 72 -14 24 -7 68 -21 98 -31 60 -18 129 -47 173 -71 107 -59 137 -78 137 -86 0 -5 5 -8 11 -8 5 0 27 -13 47 -29 79 -61 164 -95 279 -111 51 -7 109 -10 130 -6 21 4 65 11 98 17 33 5 69 14 80 19 11 5 43 14 70 19 28 5 81 17 120 26 75 17 218 41 330 56 93 12 613 12 740 0 124 -12 281 -36 360 -55 33 -8 83 -19 110 -26 95 -21 267 -71 280 -82 5 -4 17 -8 27 -8 10 0 35 -9 55 -20 21 -11 43 -20 50 -20 8 0 21 -4 31 -9 9 -5 42 -19 72 -31 30 -13 84 -36 120 -52 124 -57 140 -65 265 -139 39 -22 84 -48 100 -57 17 -9 32 -19 35 -22 3 -3 43 -31 90 -63 47 -31 106 -73 131 -92 l46 -35 151 150 c83 83 158 150 166 150 15 0 15 2 36 -220 5 -63 15 -158 21 -210 5 -52 14 -156 19 -230 5 -74 14 -155 20 -180 5 -25 11 -85 13 -135 l2 -90 -100 3 c-55 1 -127 7 -160 13 -33 5 -123 14 -200 19 -250 16 -546 44 -587 56 -10 3 -18 11 -18 17 0 7 63 75 140 152 77 77 140 144 140 150 -2 42 -590 375 -664 375 -8 0 -17 4 -20 9 -3 4 -36 18 -73 30 -37 13 -82 29 -100 37 -17 8 -39 14 -49 14 -10 0 -36 6 -59 14 -88 30 -317 75 -490 96 -87 11 -477 11 -605 0 -259 -21 -401 -77 -518 -204 -52 -57 -109 -144 -118 -182 -4 -16 -11 -34 -16 -41 -5 -6 -13 -56 -19 -110 -23 -244 -30 -296 -39 -313 -6 -10 -10 -31 -10 -47 -1 -15 -9 -46 -20 -68 -11 -22 -19 -48 -20 -57 0 -9 -4 -20 -10 -23 -5 -3 -10 -13 -10 -21 0 -23 -65 -149 -117 -228 -56 -83 -176 -217 -261 -289 -90 -76 -339 -217 -385 -217 -9 0 -18 -4 -21 -9 -6 -9 -99 -33 -201 -52 -33 -6 -138 -15 -234 -19 -120 -6 -184 -14 -207 -25 -17 -8 -36 -15 -42 -15 -36 0 -210 -122 -240 -168 -9 -15 -22 -33 -29 -40 -29 -30 -91 -179 -97 -231 -3 -29 -10 -59 -16 -65 -5 -7 -14 -62 -20 -122 -33 -366 -34 -383 -21 -552 20 -275 29 -359 39 -379 6 -10 13 -40 17 -68 8 -50 30 -144 60 -245 9 -30 20 -72 24 -93 5 -21 14 -44 20 -50 6 -6 11 -17 11 -25 0 -8 6 -28 14 -45 7 -18 21 -52 31 -77 22 -56 102 -230 116 -250 5 -8 14 -27 20 -42 6 -16 14 -28 19 -28 10 0 20 -39 14 -55 -3 -7 -20 -21 -37 -30 -35 -17 -51 -26 -115 -67 -24 -16 -46 -28 -50 -28 -4 0 -30 -15 -57 -33 -85 -55 -144 -83 -154 -72 -23 24 -152 277 -181 355 -12 33 -27 63 -31 66 -5 3 -9 14 -9 25 0 10 -9 36 -20 56 -11 21 -20 45 -20 53 0 9 -4 20 -9 25 -5 6 -18 44 -31 85 -12 41 -24 82 -27 90 -10 25 -52 199 -79 325 -15 70 -34 214 -55 415 -13 124 -6 551 10 595 6 17 15 73 20 125 13 123 57 357 71 375 4 6 11 32 15 59 3 27 11 56 15 65 5 9 19 50 30 91 12 41 26 88 31 104 17 55 11 211 -12 279 -26 80 -66 164 -94 202 -34 45 -108 192 -134 265 -12 36 -26 72 -31 80 -4 9 -11 40 -15 70 -4 30 -12 61 -19 69 -16 20 -21 360 -6 431 6 30 15 80 21 110 5 30 14 59 18 65 5 5 12 26 16 45 8 36 11 43 38 98 9 19 17 39 17 47 0 7 7 18 15 25 8 7 15 18 15 26 0 27 123 195 210 287 114 121 247 221 365 275 28 13 58 27 67 33 38 20 205 71 263 79 33 5 80 13 105 18 74 15 240 13 303 -3z m5139 -1993 c30 -52 88 -166 102 -202 3 -8 10 -22 14 -30 25 -42 102 -228 102 -244 0 -6 6 -23 14 -38 8 -15 17 -41 21 -59 4 -19 11 -40 16 -49 18 -34 77 -265 105 -410 42 -221 54 -372 54 -664 0 -159 -4 -316 -10 -350 -5 -33 -14 -92 -20 -131 -26 -184 -33 -221 -42 -232 -6 -7 -14 -39 -18 -70 -9 -62 -26 -135 -40 -168 -9 -19 -20 -68 -41 -168 -10 -47 -6 -90 20 -208 9 -41 53 -143 81 -189 8 -13 32 -68 59 -135 11 -26 36 -116 51 -180 35 -148 35 -393 0 -540 -34 -147 -127 -372 -176 -426 -8 -8 -14 -19 -14 -23 0 -16 -98 -135 -171 -206 -69 -68 -196 -166 -259 -201 -14 -8 -32 -19 -40 -25 -16 -11 -144 -65 -200 -84 -182 -61 -390 -83 -567 -60 -94 13 -206 38 -250 57 -17 7 -36 13 -41 13 -11 0 -132 52 -167 72 -11 6 -36 15 -55 19 -19 4 -53 12 -75 18 -53 14 -181 14 -225 0 -19 -6 -51 -15 -70 -19 -19 -5 -69 -20 -110 -34 -133 -46 -167 -56 -190 -56 -12 0 -36 -6 -53 -14 -18 -8 -59 -19 -92 -25 -33 -6 -112 -19 -175 -30 -302 -51 -630 -63 -895 -32 -184 22 -452 70 -498 89 -16 7 -38 12 -50 12 -12 0 -39 6 -62 14 -22 8 -67 22 -100 31 -33 9 -72 23 -87 31 -14 8 -33 14 -42 14 -8 0 -32 7 -53 16 -21 9 -47 20 -58 25 -79 32 -213 92 -275 124 -54 27 -197 105 -235 128 -62 37 -273 182 -288 198 -35 37 -54 24 -219 -141 -88 -88 -165 -160 -172 -160 -8 0 -16 42 -24 143 -7 78 -19 205 -27 282 -8 77 -19 199 -25 270 -6 72 -15 146 -20 165 -6 19 -10 74 -10 123 l0 87 69 0 c38 0 82 -5 97 -10 15 -6 100 -15 188 -20 89 -4 168 -11 176 -14 8 -3 76 -10 150 -16 272 -20 375 -31 384 -40 6 -6 -40 -60 -124 -144 -81 -83 -131 -140 -127 -148 3 -8 40 -38 83 -66 44 -28 88 -58 99 -67 10 -8 24 -15 31 -15 6 0 16 -6 22 -13 6 -6 41 -28 79 -47 37 -19 74 -40 81 -47 7 -7 19 -13 26 -13 7 0 34 -11 60 -25 25 -13 70 -34 99 -46 28 -12 66 -27 82 -34 17 -7 50 -21 75 -30 25 -10 54 -21 65 -26 11 -4 36 -11 55 -15 19 -3 40 -10 46 -15 6 -5 31 -13 55 -19 24 -5 85 -19 134 -30 327 -77 572 -92 995 -62 166 12 251 42 368 129 79 59 155 153 186 231 41 105 47 157 41 362 -4 149 -2 216 10 285 24 147 36 198 51 219 8 11 14 30 14 42 0 12 6 35 14 51 8 15 23 46 33 68 148 323 457 593 793 693 168 50 209 56 425 58 206 2 311 16 339 44 5 5 15 10 22 10 34 0 164 105 224 181 95 119 120 219 126 509 5 222 0 304 -30 505 -28 178 -34 213 -44 247 -6 18 -15 52 -21 76 -24 93 -35 128 -47 159 -8 17 -14 38 -14 46 0 9 -4 19 -10 22 -5 3 -10 16 -10 29 0 12 -7 31 -15 42 -8 10 -15 27 -15 37 0 11 -7 31 -14 45 -23 41 -76 162 -76 172 0 5 -6 15 -12 22 -22 24 -79 142 -78 163 0 13 13 27 37 40 41 22 131 78 149 93 6 5 20 13 32 16 12 4 22 12 22 17 0 5 6 9 13 9 6 0 34 16 61 35 71 50 88 47 128 -23z m-2564 -604 c1 -263 3 -479 5 -480 1 -2 220 -5 487 -8 l485 -5 3 -479 c1 -328 -1 -483 -8 -490 -7 -7 -172 -13 -488 -16 l-477 -5 -3 -470 c-1 -258 -6 -473 -11 -478 -11 -11 -951 -11 -962 0 -5 5 -10 220 -11 478 l-3 470 -476 3 c-386 2 -479 5 -488 16 -8 9 -10 149 -9 492 l3 479 485 5 c267 3 486 6 488 8 1 1 2 215 2 475 0 261 3 477 7 480 3 4 223 6 487 5 l481 -3 3 -477z"/>
<path d="M4540 10403 c-91 -22 -127 -41 -186 -99 -61 -59 -89 -114 -105 -198 -13 -74 -3 -238 17 -280 8 -16 14 -36 14 -44 0 -20 55 -109 96 -155 31 -33 34 -43 34 -97 0 -81 2 -80 -202 -174 -267 -123 -291 -141 -323 -232 -17 -48 -17 -53 -1 -95 29 -74 75 -114 156 -136 106 -29 651 -42 945 -23 222 15 288 39 342 124 62 96 12 212 -117 272 -30 15 -95 46 -145 69 -49 24 -120 57 -157 74 -36 16 -73 40 -82 53 -24 35 -20 99 9 139 13 19 37 52 52 74 15 22 30 42 34 45 3 3 15 32 27 65 63 178 55 328 -24 463 -56 96 -121 132 -294 166 -14 2 -54 -3 -90 -11z"/>
<path d="M9020 5910 c-8 -5 -26 -10 -40 -10 -28 0 -124 -59 -152 -93 -10 -12 -22 -27 -28 -34 -12 -15 -44 -87 -59 -134 -16 -50 -14 -208 4 -274 20 -77 71 -177 117 -229 34 -40 38 -49 38 -100 0 -76 -10 -84 -195 -166 -142 -63 -253 -122 -276 -147 -43 -47 -69 -98 -69 -137 0 -50 42 -119 93 -154 77 -52 140 -57 672 -57 417 1 488 3 545 17 36 10 66 22 68 28 2 5 9 10 16 10 34 0 96 101 96 156 0 73 -79 171 -164 204 -100 38 -341 157 -360 179 -30 33 -18 122 21 164 39 40 93 129 93 151 0 9 6 27 14 39 7 12 19 63 25 112 9 72 9 105 -2 168 -8 43 -19 83 -26 90 -6 6 -11 17 -11 23 0 51 -136 172 -211 189 -58 12 -193 16 -209 5z"/>
<path d="M11887 12296 c-55 -32 -77 -73 -77 -141 0 -57 1 -60 50 -107 44 -42 55 -48 93 -48 53 0 97 21 132 61 21 25 25 41 25 91 0 68 -21 114 -68 144 -38 25 -112 25 -155 0z"/>
<path d="M11220 12140 c-71 -18 -127 -49 -183 -100 -66 -60 -100 -114 -134 -209 -20 -56 -23 -77 -17 -136 3 -38 13 -79 20 -90 8 -11 14 -28 14 -38 0 -26 33 -86 75 -134 35 -42 117 -103 136 -103 5 0 20 -6 32 -14 26 -16 114 -36 162 -36 64 0 202 42 243 74 55 43 115 111 142 161 60 110 60 283 0 402 -35 69 -143 178 -188 189 -15 4 -37 14 -49 22 -27 17 -201 26 -253 12z"/>
<path d="M1345 10701 c-65 -17 -110 -34 -165 -60 -50 -23 -157 -128 -182 -178 -12 -24 -25 -43 -30 -43 -4 0 -8 -8 -8 -17 0 -10 -8 -31 -17 -48 -13 -24 -16 -59 -16 -170 l-1 -140 38 -79 c109 -229 394 -361 619 -285 90 30 154 67 215 124 67 61 94 104 132 203 27 68 30 88 30 189 0 64 -4 114 -10 118 -5 3 -10 13 -10 21 0 33 -75 165 -122 213 -27 28 -51 51 -53 51 -2 0 -23 13 -47 29 -47 31 -106 52 -213 76 -81 17 -81 17 -160 -4z"/>
<path d="M261 10452 c-66 -11 -160 -102 -185 -179 -18 -58 -21 -124 -6 -151 5 -9 16 -34 26 -54 41 -94 132 -144 251 -140 99 4 179 52 220 134 42 84 49 124 30 176 -10 26 -17 53 -17 60 0 14 -46 79 -70 99 -8 7 -37 24 -65 37 -48 23 -117 30 -184 18z"/>
<path d="M12975 6895 c-89 -15 -127 -36 -196 -104 -65 -66 -86 -103 -105 -191 -18 -80 -6 -167 34 -249 76 -157 264 -242 433 -195 35 9 71 23 80 31 8 7 20 13 26 13 18 0 108 94 127 131 53 106 71 224 42 280 -7 14 -16 38 -20 53 -15 61 -136 196 -175 196 -7 0 -22 6 -34 14 -12 8 -44 17 -71 21 -27 4 -54 8 -60 10 -6 1 -42 -3 -81 -10z"/>
<path d="M1675 3226 c-33 -12 -79 -33 -102 -45 -63 -33 -152 -136 -197 -224 l-38 -78 0 -127 c0 -133 2 -142 60 -262 25 -51 140 -162 199 -192 82 -42 181 -62 271 -55 138 10 232 54 330 153 39 41 72 79 72 86 0 6 6 19 13 27 56 68 71 290 28 414 -13 37 -28 67 -32 67 -5 0 -9 6 -9 13 0 15 -41 68 -89 114 -44 43 -124 88 -198 113 -83 28 -227 26 -308 -4z"/>
<path d="M2300 2040 c-8 -5 -24 -10 -35 -10 -25 -1 -64 -34 -93 -81 -17 -28 -22 -52 -22 -102 0 -58 3 -70 33 -109 62 -82 165 -106 259 -60 114 56 136 238 38 320 -49 41 -146 64 -180 42z"/>
<path d="M8022 2000 c-40 -3 -78 -12 -84 -18 -7 -7 -19 -12 -28 -12 -9 0 -50 -16 -91 -36 -161 -79 -279 -224 -344 -421 -23 -73 -24 -301 -1 -357 9 -21 16 -44 16 -51 0 -7 9 -32 20 -56 92 -197 223 -308 444 -379 61 -20 84 -22 200 -18 111 4 142 9 206 33 41 15 82 33 91 41 8 8 22 14 30 14 23 1 140 101 186 160 44 57 113 186 113 213 0 8 7 28 15 43 21 41 22 312 0 340 -8 10 -15 30 -15 44 0 26 -50 132 -76 161 -8 8 -14 19 -14 23 0 20 -102 122 -160 161 -154 102 -299 135 -508 115z"/>
</g>
</svg>
